<mxfile host="65bd71144e">
    <diagram id="nlHLvb0Yl6FoqS7LF6Cs" name="Page-1">
        <mxGraphModel dx="1522" dy="301" grid="1" gridSize="10" guides="1" tooltips="1" connect="1" arrows="1" fold="1" page="1" pageScale="1" pageWidth="1169" pageHeight="827" background="#F4F1DE" math="0" shadow="0">
            <root>
                <mxCell id="0"/>
                <mxCell id="1" parent="0"/>
                <mxCell id="2" value="Points to remember&lt;br&gt;Bundle is not an NFT, so work accordingly.&lt;br&gt;But buying a bundle means the person owns all the corresponding NFTs.&lt;br&gt;" style="rounded=0;whiteSpace=wrap;html=1;fontColor=#393C56;strokeColor=#E07A5F;fillColor=#F2CC8F;fontStyle=1;sketch=1;" vertex="1" parent="1">
                    <mxGeometry x="-1030" y="150" width="300" height="150" as="geometry"/>
                </mxCell>
            </root>
        </mxGraphModel>
    </diagram>
</mxfile>